<?xml version="1.0" encoding="UTF-8" standalone="no"?>
<svg
   xmlns:svg="http://www.w3.org/2000/svg"
   xmlns="http://www.w3.org/2000/svg"
   version="1.0"
   width="194"
   height="194"
   id="svg2851">
  <defs
     id="defs2853" />
  <g
     transform="translate(-423,-658.2193)"
     id="layer1">
    <g
       transform="translate(423,658.2193)"
       id="g1947">
      <path
         d="M 0,97 L 0,0 L 97,0 L 194,0 L 194,97 L 194,194 L 97,194 L 0,194 L 0,97 z "
         style="opacity:0;fill:white;fill-opacity:1;stroke:none"
         id="path1951" />
      <path
         d="M 85,188.00177 C 51.922897,183.57545 22.717596,160.19755 11.036332,128.79623 C -5.4619413,84.445946 14.254302,34.34687 56.5,13.272822 C 85.227847,-1.0579165 121.17846,0.88068147 147.69424,18.190374 C 182.62491,40.993355 197.94095,82.04959 186.51332,122.24892 C 174.09836,165.92142 130.59051,194.1026 85,188.00177 z M 120.18031,170.68518 C 153.43724,160.18444 175.25497,130.81173 175.28425,96.5 C 175.29519,83.680649 173.5161,75.150315 168.62263,64.559054 C 160.43504,46.838088 148.93107,35.022519 131.14353,26.064803 C 113.34252,17.100307 88.664737,16.286753 68.928635,24.013761 C 56.37411,28.929063 41.372951,40.909649 33.839001,52.037886 C 9.4842777,88.01173 18.737157,136.90907 54.338561,160.36891 C 63.510737,166.41299 73.111279,170.51312 82.895196,172.56468 C 92.798947,174.64136 110.4722,173.75047 120.18031,170.68518 z M 90.547238,155.88826 C 73.525366,153.40911 59.37382,144.38183 50.158852,130.12448 C 40.161654,114.65687 37.034021,89.342592 43.401697,75.433755 C 46.626906,68.38897 46.639363,67.193584 43.5,66 C 40.106612,64.709836 40.358703,62.581835 44.25,59.668946 C 49.544364,55.705769 53.465251,54.085334 60.806409,52.826465 C 68.487399,51.509322 73.55967,52.354826 75.390651,55.257533 C 77.064102,57.910505 75.259934,59.811418 68.5,62.517681 C 44.937012,71.950855 44.904355,105.8779 68.442804,121.9373 C 75.508288,126.75781 83.545584,129.15444 94.5,129.70728 C 117.12174,130.84892 134.16267,122.7912 141.33548,105.17961 C 143.79082,99.150961 144.5,97.477466 144.5,89.929295 C 144.5,82.369948 144.14477,80.663991 141.48961,75.47225 C 137.98308,68.615769 131.95741,63.521679 125.40066,61.870669 C 121.99272,61.012539 120.83513,60.191284 120.35888,58.293762 C 119.5103,54.912731 121.81431,52.887971 127.20113,52.280797 C 136.71909,51.207985 153.17828,57.961359 153.80381,63.19615 C 154.02724,65.065914 153.56422,65.880696 152.05381,66.275677 C 149.91185,66.835812 149.77223,70.31211 150.87708,72.55 C 154.03614,78.948712 156.57117,98.867775 153.07869,112.31395 C 145.56266,141.25093 118.67779,159.98534 90.547238,155.88826 z "
         style="fill:black;fill-opacity:1"
         id="path1949" />
    </g>
  </g>
</svg>
